<?xml version="1.0" standalone="no"?>
<!DOCTYPE svg PUBLIC "-//W3C//DTD SVG 20010904//EN"
 "http://www.w3.org/TR/2001/REC-SVG-20010904/DTD/svg10.dtd">
<svg version="1.0" xmlns="http://www.w3.org/2000/svg"
 width="300.000000pt" height="300.000000pt" viewBox="0 0 300.000000 300.000000"
 preserveAspectRatio="xMidYMid meet">
<metadata>
Created by potrace 1.14, written by Peter Selinger 2001-2017
</metadata>
<g transform="translate(0.000000,300.000000) scale(0.100000,-0.100000)"
fill="#000000" stroke="none">
<path d="M1430 2978 c-53 -9 -77 -30 -89 -77 -6 -20 -10 -130 -10 -246 0 -115
0 -218 0 -227 -1 -17 -20 -18 -243 -18 -331 0 -332 -1 -326 -212 3 -113 4
-119 31 -145 l27 -28 255 -3 c254 -3 255 -3 256 -25 0 -12 1 -119 1 -238 1
-250 8 -281 64 -299 19 -7 81 -12 137 -12 190 1 190 1 190 329 l0 243 240 0
c328 0 330 1 332 191 1 197 -2 199 -332 199 l-239 0 -1 243 c0 322 -1 324
-166 329 -46 2 -103 0 -127 -4z"/>
<path d="M2177 1464 c-1 -1 -31 -4 -67 -8 -89 -8 -207 -39 -272 -71 -100 -51
-243 -178 -328 -295 -10 -14 -20 -23 -22 -20 -111 142 -138 171 -208 220 -19
14 -37 28 -40 31 -14 17 -164 79 -230 95 -79 19 -231 24 -335 12 -273 -33
-533 -220 -599 -431 -10 -31 -18 -59 -17 -62 0 -2 -5 -19 -10 -37 -10 -36 -13
-195 -4 -243 33 -182 80 -286 176 -390 61 -66 208 -153 289 -170 8 -2 36 -8
61 -14 99 -23 253 -30 349 -16 197 27 341 103 492 257 l87 88 58 -61 c75 -79
200 -172 288 -214 113 -54 205 -76 335 -80 272 -8 503 94 635 280 101 142 141
277 139 466 -2 141 -37 263 -106 364 -51 74 -94 115 -178 170 -76 49 -119 67
-228 94 -64 17 -256 42 -265 35z m216 -414 c116 -44 165 -116 170 -249 7 -166
-53 -278 -179 -336 -68 -31 -105 -38 -214 -38 -126 0 -234 47 -346 150 -63 58
-135 153 -127 166 153 255 287 339 533 332 78 -2 120 -9 163 -25z m-1491 5
c117 -21 243 -115 336 -252 l40 -58 -51 -60 c-91 -107 -169 -174 -250 -215
l-78 -40 -112 3 c-137 4 -207 27 -279 95 -64 60 -98 133 -102 220 -4 89 9 125
65 186 99 108 255 152 431 121z"/>
</g>
</svg>
