<svg version="1.0" xmlns="http://www.w3.org/2000/svg" width="400" height="400" viewBox="0 0 300 300"><path d="M143 2.2c-5.3.9-7.7 3-8.9 7.7-.6 2-1 13-1 24.6v22.7c-.1 1.7-2 1.8-24.3 1.8-33.1 0-33.2.1-32.6 21.2.3 11.3.4 11.9 3.1 14.5l2.7 2.8 25.5.3c25.4.3 25.5.3 25.6 2.5 0 1.2.1 11.9.1 23.8.1 25 .8 28.1 6.4 29.9 1.9.7 8.1 1.2 13.7 1.2 19-.1 19-.1 19-32.9V98h24c32.8 0 33-.1 33.2-19.1.1-19.7-.2-19.9-33.2-19.9h-23.9l-.1-24.3c0-32.2-.1-32.4-16.6-32.9-4.6-.2-10.3 0-12.7.4z"/><path d="M217.7 153.6c-.1.1-3.1.4-6.7.8-8.9.8-20.7 3.9-27.2 7.1-10 5.1-24.3 17.8-32.8 29.5-1 1.4-2 2.3-2.2 2-11.1-14.2-13.8-17.1-20.8-22-1.9-1.4-3.7-2.8-4-3.1-1.4-1.7-16.4-7.9-23-9.5-7.9-1.9-23.1-2.4-33.5-1.2-27.3 3.3-53.3 22-59.9 43.1-1 3.1-1.8 5.9-1.7 6.2 0 .2-.5 1.9-1 3.7-1 3.6-1.3 19.5-.4 24.3 3.3 18.2 8 28.6 17.6 39 6.1 6.6 20.8 15.3 28.9 17 .8.2 3.6.8 6.1 1.4 9.9 2.3 25.3 3 34.9 1.6 19.7-2.7 34.1-10.3 49.2-25.7l8.7-8.8 5.8 6.1c7.5 7.9 20 17.2 28.8 21.4 11.3 5.4 20.5 7.6 33.5 8 27.2.8 50.3-9.4 63.5-28 10.1-14.2 14.1-27.7 13.9-46.6-.2-14.1-3.7-26.3-10.6-36.4-5.1-7.4-9.4-11.5-17.8-17-7.6-4.9-11.9-6.7-22.8-9.4-6.4-1.7-25.6-4.2-26.5-3.5zm21.6 41.4c11.6 4.4 16.5 11.6 17 24.9.7 16.6-5.3 27.8-17.9 33.6-6.8 3.1-10.5 3.8-21.4 3.8-12.6 0-23.4-4.7-34.6-15-6.3-5.8-13.5-15.3-12.7-16.6 15.3-25.5 28.7-33.9 53.3-33.2 7.8.2 12 .9 16.3 2.5zm-149.1-.5c11.7 2.1 24.3 11.5 33.6 25.2l4 5.8-5.1 6c-9.1 10.7-16.9 17.4-25 21.5l-7.8 4-11.2-.3c-13.7-.4-20.7-2.7-27.9-9.5-6.4-6-9.8-13.3-10.2-22-.4-8.9.9-12.5 6.5-18.6 9.9-10.8 25.5-15.2 43.1-12.1z"/></svg>